HIERARCHY
ROOT Hips
{
  OFFSET 0.382225 96.6805 0.598322
  CHANNELS 6 Xposition Yposition Zposition Zrotation Xrotation Yrotation
  JOINT Spine
  {
    OFFSET 10.8089 -0.851416 0
    CHANNELS 3 Zrotation Xrotation Yrotation
    JOINT Spine1
    {
      OFFSET 18.8753 3.80116 0
      CHANNELS 3 Zrotation Xrotation Yrotation
      JOINT Spine2
      {
        OFFSET 13.4073 0.420477 0
        CHANNELS 3 Zrotation Xrotation Yrotation
        JOINT LeftShoulder
        {
          OFFSET 11.8837 -2.73209 -3.78198
          CHANNELS 3 Zrotation Xrotation Yrotation
          JOINT LeftArm
          {
            OFFSET 15.7849 0 -2.35849e-005
            CHANNELS 3 Zrotation Xrotation Yrotation
            JOINT LeftForeArm
            {
              OFFSET 30.3399 0 0
              CHANNELS 3 Zrotation Xrotation Yrotation
              JOINT LeftHand
              {
                OFFSET 26.9751 0 2.45913e-005
                CHANNELS 3 Zrotation Xrotation Yrotation
                End Site
                {
                  OFFSET 8 0 0
                }
              }
            }
          }
        }
        JOINT RightShoulder
        {
          OFFSET 11.8838 -2.7321 3.782
          CHANNELS 3 Zrotation Xrotation Yrotation
          JOINT RightArm
          {
            OFFSET -15.7848 0 -1.07056e-005
            CHANNELS 3 Zrotation Xrotation Yrotation
            JOINT RightForeArm
            {
              OFFSET -30.34 1.02096e-005 -2.53607e-005
              CHANNELS 3 Zrotation Xrotation Yrotation
              JOINT RightHand
              {
                OFFSET -26.9752 2.07668e-005 0
                CHANNELS 3 Zrotation Xrotation Yrotation
                End Site
                {
                  OFFSET -8 0 0
                }
              }
            }
          }
        }
        JOINT Neck
        {
          OFFSET 16.5588 -0.355318 0
          CHANNELS 3 Zrotation Xrotation Yrotation
          JOINT Head
          {
            OFFSET 9.28361 0.364157 0
            CHANNELS 3 Zrotation Xrotation Yrotation
            End Site
            {
              OFFSET 0 0 0
            }
          }
        }
      }
    }
  }
  JOINT LeftUpLeg
  {
    OFFSET -1.44883 -0.531424 -9.00581
    CHANNELS 3 Zrotation Xrotation Yrotation
    JOINT LeftLeg
    {
      OFFSET -42.572 0.0788889 -0.011964
      CHANNELS 3 Zrotation Xrotation Yrotation
      JOINT LeftFoot
      {
        OFFSET -40.1967 0 0
        CHANNELS 3 Zrotation Xrotation Yrotation
				JOINT LeftToe
        {
          OFFSET -10.4538 -16.5779 0.0801563
          CHANNELS 3 Zrotation Xrotation Yrotation
          End Site
          {
            OFFSET -1.0 -1.0 0.0
          }
        }
      }
    }
  }
  JOINT RightUpLeg
  {
    OFFSET -1.44865 -0.531427 9.0058
    CHANNELS 3 Zrotation Xrotation Yrotation
    JOINT RightLeg
    {
      OFFSET 42.5723 -3.24776e-005 0
      CHANNELS 3 Zrotation Xrotation Yrotation
      JOINT RightFoot
      {
        OFFSET 40.1968 0 -1.14003e-005
        CHANNELS 3 Zrotation Xrotation Yrotation
				JOINT RightToe
        {
          OFFSET 10.4538 16.5778 -0.0801573
          CHANNELS 3 Zrotation Xrotation Yrotation
          End Site
          {
            OFFSET -1.0 -1.0 0.0
          }
        }
      }
    }
  }
}
MOTION
Frames:	19
Frame Time:	0.0333333
11.481 84.0052 131.835 -99.2672 15.8035 175.003 -31.2009 3.1744 13.0701 11.693 0.110907 0.230767 2.7794 1.93418e-006 1.65929e-005 -1.37936 16.7196 76.7026 -63.8426 2.47049 66.1158 -107.768 24.8319 -18.4415 -85.8296 -49.4982 -80.9304 -177.925 0.0491041 81.086 -30.4807 -9.5363 74.8349 -101.466 -7.97358 -7.97612 -104.559 -70.2157 -97.8394 -23.508 4.63459e-006 -5.90926e-006 15.0949 -35.9897 20.6013 40.1683 12.6296 -10.3568 -74.5803 -1.7017 -3.84558 0.335294 -8.58521 12.8136 -90 0 0 -143.053 15.5691 -12.603 -65.2316 -0.712061 -5.28919 24.5859 22.3415 -9.24504 -90 0 0
14.3564 83.6678 134.159 -96.9363 16.7851 175.167 -32.2946 0.283609 10.7654 12.3795 0.0797877 0.163475 2.7794 1.93418e-006 1.65929e-005 -1.5999 18.1182 78.3108 -62.8521 7.19712 80.7016 -104.306 23.1951 -19.0259 -82.5588 -47.2964 -78.3561 -177.797 -2.39656 81.0687 -33.8535 -20.8425 66.7478 -108.084 -7.56282 -8.41865 -76.183 -70.1194 -62.9446 -23.508 4.63459e-006 -5.90926e-006 17.9948 -37.615 16.7716 37.9244 10.067 -9.7388 -77.6197 -1.19871 -3.94343 6.46282 -9.72695 9.96674 -90 0 0 -139.826 10.7513 -10.421 -64.508 -0.887111 -5.23526 20.0566 20.3265 -5.79367 -90 0 0
17.6156 83.2792 137.042 -94.6388 19.1517 175.617 -35.3189 4.30389 9.11582 12.42 0.0779233 0.15952 2.7794 1.93418e-006 1.65929e-005 -2.16975 18.7726 80.9824 -64.4332 13.2465 88.5168 -98.859 20.5043 -19.7276 -76.7589 -49.3818 -75.8411 -177.558 -3.63971 76.4729 -30.5506 -29.677 59.1173 -108.957 -7.50064 -8.47176 -70.8668 -62.5588 -50.7497 -23.508 4.63459e-006 -5.90926e-006 26.1172 -43.3561 17.2142 35.252 8.64528 -8.98851 -74.9615 -1.40051 -3.87777 17.2931 -10.7445 10.6492 -90 0 0 -135.744 7.88997 -8.41852 -62.5369 -1.20852 -5.08591 14.644 19.0383 -4.64361 -90 0 0
20.7799 82.9507 140.003 -92.1318 22.6678 174.522 -37.6839 9.46173 10.5371 12.3165 0.0826665 0.169636 2.7794 1.93418e-006 1.65929e-005 -2.93997 21.1177 84.1145 -66.9878 23.2951 84.8865 -99.2539 20.7036 -19.6859 -78.6679 -51.2368 -77.1459 -177.363 -2.65866 74.1261 -26.1839 -27.3158 53.6078 -92.7058 -8.43292 -7.32255 -79.5337 -68.0118 -63.5339 -23.508 4.63459e-006 -5.90926e-006 33.6414 -47.2454 20.2033 34.3686 10.1676 -7.8619 -70.3701 -1.83209 -3.71111 24.3071 -10.9727 10.5639 -90 0 0 -131.807 3.37355 -6.26093 -59.7997 -1.62825 -4.86408 9.30869 18.835 -3.558 -90 0 0
23.3066 82.7136 142.06 -92.4222 23.1245 174.424 -39.9595 11.0234 11.7466 11.3823 0.124739 0.261351 2.7794 1.93418e-006 1.65929e-005 -2.23358 23.2492 81.5063 -63.1546 27.1949 72.0257 -101.235 21.694 -19.4549 -74.7029 -53.7767 -71.4014 -177.602 -0.797367 77.8139 -24.5402 -13.4935 49.9167 -66.7803 -9.15472 -5.0859 -74.5007 -65.8975 -60.4375 -23.508 4.63459e-006 -5.90926e-006 35.5972 -49.6362 20.3686 33.7466 11.0594 -6.71257 -67.8201 -2.0742 -3.59619 25.9916 -9.36683 10.0748 -90 0 0 -131.303 0.41514 -5.07405 -56.9124 -2.02882 -4.61455 5.08805 21.3155 -4.06611 -90 0 0
25.5449 82.6445 143.415 -95.9496 20.3298 175.979 -42.7031 9.38248 10.5296 9.55316 0.202742 0.442837 2.7794 1.93418e-006 1.65929e-005 -0.391819 20.8273 74.5914 -56.1091 19.6763 55.0244 -99.1714 20.6621 -19.6947 -88.0189 -55.7504 -84.6864 -178.192 0.715305 83.3675 -21.6861 6.00015 50.7023 -49.276 -9.05459 -3.49384 -80.6961 -67.8025 -66.0876 -23.508 4.63459e-006 -5.90926e-006 31.161 -49.5262 17.7248 32.2218 11.7014 -6.23943 -66.0703 -2.27157 -3.50693 24.8045 -7.37187 10.3002 -90 0 0 -134.396 -0.574239 -5.66319 -54.3065 -2.38285 -4.3743 1.15863 24.1893 -3.80223 -90 0 0
27.9031 83.0914 144.734 -98.2009 17.2584 177.111 -43.2464 4.35112 9.2215 8.79786 0.233259 0.518465 2.7794 1.93418e-006 1.65929e-005 -0.0627985 15.4903 69.3081 -52.668 6.91486 38.1102 -95.462 18.7656 -20.026 -87.5995 -52.3985 -84.2446 -179.663 6.31162 88.142 -20.3182 23.9337 56.6371 -47.5049 -9.01775 -3.33616 -80.9685 -68.7586 -65.8261 -23.508 4.63459e-006 -5.90926e-006 17.7777 -47.7288 9.42627 31.6721 13.108 -6.44798 -63.5129 -2.51516 -3.36636 22.1832 -7.54805 9.19562 -90 0 0 -136.87 -0.684738 -7.06635 -50.6998 -2.84489 -4.0178 -4.03242 23.6148 -3.08317 -90 0 0
30.5265 84.3693 146.174 -100.24 16.4431 179.01 -42.7771 -5.76752 8.71158 8.53051 0.243817 0.545346 2.7794 1.93418e-006 1.65929e-005 -1.1199 8.99063 64.0856 -52.1156 -6.68036 26.0246 -91.9931 16.9545 -20.2177 -95.1583 -49.6525 -91.7339 179.207 10.6652 89.0914 -19.5243 37.0445 63.8762 -50.9151 -9.08443 -3.64069 -80.2781 -70.0772 -65.209 -23.508 4.63459e-006 -5.90926e-006 0.907138 -37.964 -0.483767 30.7148 15.0551 -8.21439 -59.501 -2.9099 -3.11839 17.3744 -9.67601 8.15504 -90 0 0 -139.343 -1.29159 -7.53618 -45.7092 -3.47058 -3.48574 -13.8704 18.6858 0.784132 -90 0 0
33.3981 86.3118 148.083 -102.367 18.7976 -177.611 -41.3299 -18.4093 8.87312 7.03748 0.300466 0.696274 2.7794 1.93418e-006 1.65929e-005 -2.86413 3.96208 60.8416 -55.2048 -15.6803 16.1307 -85.9423 13.7342 -20.2756 -100.659 -44.0443 -96.9135 179.998 13.0103 84.5292 -16.0647 43.6863 65.8134 -54.5576 -9.13549 -3.96992 -72.2883 -72.6595 -56.7446 -23.508 4.63459e-006 -5.90926e-006 -9.55875 -25.0953 -2.73695 29.3074 18.9897 -11.899 -53.6442 -3.43428 -2.69979 11.7726 -10.566 5.67789 -90 0 0 -141.674 3.64215 -7.87935 -35.3405 -4.52263 -2.2843 -30.8997 9.16983 4.02689 -90 0 0
36.7002 88.2089 150.441 -103.647 24.0964 -172.637 -40.8245 -29.5521 8.0745 7.33647 0.289434 0.665933 2.7794 1.93418e-006 1.65929e-005 -4.22102 1.05175 58.1508 -58.1158 -23.2095 12.1942 -74.0336 7.36462 -19.3671 -92.1887 -43.8363 -84.1752 -177.54 14.3296 76.4085 -6.58388 41.7117 58.356 -59.7549 -9.17258 -4.44372 -55.0761 -73.2092 -38.0545 -23.508 4.63459e-006 -5.90926e-006 -15.1337 -14.241 0.796322 30.0812 23.0069 -17.7081 -47.6132 -3.94278 -2.20214 6.3769 -10.2802 3.42831 -90 0 0 -138.073 12.8686 -6.2895 -35.0606 -4.5611 -2.25333 -28.1088 -4.43562 12.5055 -90 0 0
40.4408 89.7519 153.361 -105.675 33.1196 -166.687 -41.8409 -36.3666 7.74301 8.37366 0.249953 0.561136 2.7794 1.93418e-006 1.65929e-005 -5.45673 -1.05489 55.6558 -54.7749 -25.0056 8.97142 -57.0705 -1.05872 -15.8902 -94.5193 -37.1663 -85.0606 -175.404 15.0257 70.4651 1.35293 30.8759 48.0963 -66.3946 -9.15766 -5.05075 -56.1201 -72.2505 -40.9589 -23.508 4.63459e-006 -5.90926e-006 -15.8922 -6.16168 1.16058 32.1032 27.4906 -24.7758 -41.4416 -4.42498 -1.63291 1.28187 -7.59067 1.74685 -90 0 0 -129.369 17.2832 -2.20669 -46.295 -3.5435 -3.56659 -20.4541 -2.31103 17.3638 -90 0 0
44.006 91.0542 156.845 -109.719 42.9273 -158.471 -46.3196 -38.7099 4.96812 9.64625 0.198912 0.433538 2.7794 1.93418e-006 1.65929e-005 -5.79159 -1.4134 53.9511 -44.4809 -18.9003 7.66035 -44.1276 -6.43755 -11.7721 -104.719 -32.6089 -99.2031 -174.839 14.6116 68.8873 5.84488 16.6824 36.6636 -71.0624 -9.10597 -5.47446 -56.0824 -73.5148 -41.2038 -23.508 4.63459e-006 -5.90926e-006 -13.1603 2.24831 -3.90525 33.9992 30.6324 -32.3291 -34.7407 -4.898 -0.956332 -3.66555 -3.14709 0.996096 -90 0 0 -118.318 19.7797 1.80709 -62.7137 -1.64248 -5.06996 -14.7203 2.04598 18.7641 -90 0 0
47.5277 92.7348 160.376 -113.623 51.8274 -149.545 -51.2588 -36.9448 -0.0783872 9.98788 0.184726 0.399484 2.7794 1.93418e-006 1.65929e-005 -4.53957 0.652812 54.7141 -31.0432 -9.19409 12.1279 -43.592 -6.62091 -11.594 -104.527 -27.8728 -100.025 -174.399 14.3029 67.6475 8.05821 5.18057 26.561 -73.3257 -9.06867 -5.67806 -52.0131 -73.2513 -36.4223 -23.508 4.63459e-006 -5.90926e-006 -8.81731 8.36498 -8.57304 36.2441 33.7867 -39.6174 -23.7776 -5.49506 -0.0645703 -11.5946 0.724139 1.213 -90 0 0 -105.002 22.663 2.66008 -79.3031 0.639388 -5.92996 -7.88369 -2.16561 18.7933 -90 0 0
50.9987 95.1504 163.746 -117.887 60.4915 -140.192 -54.8283 -32.2933 -4.45052 9.59831 0.200882 0.438335 2.7794 1.93418e-006 1.65929e-005 -2.8249 3.88178 58.0339 -17.0602 1.50276 20.8468 -52.6773 -3.00374 -14.6215 -101.03 -22.678 -97.2285 -173.395 15.597 65.4749 7.93179 -2.25858 20.4367 -73.4799 -9.06582 -5.69188 -59.781 -74.4949 -44.7082 -23.508 4.63459e-006 -5.90926e-006 -5.52922 12.6574 -11.5934 37.0694 41.7217 -46.2441 -1.41691 -6.01226 2.50935 -25.9096 2.3307 2.3858 -90 0 0 -91.5239 24.7533 -0.476275 -92.4099 2.51415 -6.08179 -2.6656 -6.77755 19.8133 -90 0 0
54.1628 97.7219 166.695 -122.469 69.4038 -130.837 -55.5267 -26.9296 -7.11235 8.6623 0.238629 0.532102 2.7794 1.93418e-006 1.65929e-005 -0.805112 9.17261 61.9772 -8.42766 13.3966 33.827 -64.6805 2.5675 -17.7455 -96.9161 -22.3644 -96.3469 -172.319 17.4532 63.5601 7.0931 -2.97387 17.802 -73.3957 -9.06739 -5.68433 -64.482 -72.6149 -49.614 -23.508 4.63459e-006 -5.90926e-006 -2.63186 15.4899 -13.8965 50.6962 42.1473 -58.8288 -0.264796 -6.13941 2.60886 -31.2552 -0.246904 4.45218 -90 0 0 -78.822 24.2478 -7.11537 -101.458 3.87154 -5.91383 1.09976 -6.46523 19.2247 -90 0 0
56.9391 99.9541 169.065 -135.425 77.8795 -113.799 -54.4607 -20.7161 -7.63078 8.46614 0.246328 0.55183 2.7794 1.93418e-006 1.65929e-005 -0.330847 13.1096 67.5575 -5.72959 26.2183 48.4436 -74.2415 7.47435 -19.3943 -93.82 -26.4564 -95.3144 -172.947 18.2843 65.2012 8.32391 1.6943 17.0211 -71.7035 -9.09623 -5.53228 -61.6837 -75.1547 -46.314 -23.508 4.63459e-006 -5.90926e-006 -1.13855 16.3615 -14.6925 54.8214 39.5561 -65.7873 -0.084834 -6.32983 2.56201 -32.9275 -7.26889 5.67289 -90 0 0 -73.058 20.5236 -12.9526 -104.513 4.46283 -5.82405 3.71524 -4.7887 16.7874 -90 0 0
59.5281 101.914 170.894 -179.476 82.6193 -66.7385 -53.226 -16.9779 -6.56109 8.40896 0.248578 0.557566 2.7794 1.93418e-006 1.65929e-005 -0.569158 20.5859 75.121 -7.17744 34.6878 60.1107 -81.04 11.1002 -20.0642 -92.6532 -31.0992 -94.0487 -174.498 19.55 68.8951 4.87918 5.60044 23.9158 -64.1326 -9.17055 -4.84424 -66.0814 -74.87 -50.2556 -23.508 4.63459e-006 -5.90926e-006 1.85551 17.8794 -12.583 45.8749 38.5329 -63.9092 -0.151901 -6.08176 2.63994 -30.4945 -4.2708 7.14854 -90 0 0 -78.7608 16.0459 -15.0215 -99.3521 3.88679 -6.00746 3.34733 -3.35505 14.6357 -90 0 0
62.1278 102.958 172.063 130.592 81.8937 -15.8359 -50.1413 -15.3895 -5.26017 9.50662 0.204647 0.447483 2.7794 1.93418e-006 1.65929e-005 -2.17508 27.2341 81.3632 -6.86866 38.3043 64.7145 -85.4659 13.478 -20.2652 -89.0722 -34.4837 -89.0923 -176.693 19.0978 73.902 2.07611 11.3188 33.4712 -53.5846 -9.12385 -3.88164 -85.3222 -75.9577 -70.6073 -23.508 4.63459e-006 -5.90926e-006 3.46979 17.9728 -8.75297 47.2551 43.1089 -64.0121 -1.05861 -6.02611 2.55097 -25.881 -1.73791 11.026 -90 0 0 -90.2837 10.9267 -15.8364 -88.1336 2.33675 -6.12401 -1.82089 -2.10342 11.6768 -90 0 0
65.6564 102.627 172.397 110.729 81.527 2.35034 -45 -15.0031 -4.26158 9.84167 0.190822 0.414039 2.7794 1.93418e-006 1.65929e-005 -1.87114 27.7743 80.5539 -4.13934 39.0579 58.9868 -88.1503 14.9153 -20.2954 -88.0973 -38.7865 -87.2708 -177.384 21.3366 75.3342 -1.97584 21.1415 46.34 -49.0518 -9.05016 -3.47379 -99.2915 -78.0222 -86.814 -23.508 4.63459e-006 -5.90926e-006 4.23265 17.754 -3.98783 45.2072 46.8667 -59.0727 -1.33006 -5.99768 2.51947 -19.7274 -0.862571 10.9054 -90 0 0 -104.87 5.93616 -18.8559 -75.3892 0.485878 -5.82324 -8.54328 -1.35244 9.73925 -90 0 0
